<?xml version="1.0" encoding="utf-8"?>
<svg width="152.942" height="90.331" viewBox="0 0 152.942 90.331" xmlns="http://www.w3.org/2000/svg" xmlns:xlink="http://www.w3.org/1999/xlink">
  <defs>
    <linearGradient id="linear-gradient" y1="0.5" x2="1" y2="0.5" gradientUnits="objectBoundingBox">
      <stop offset="0" stop-color="#1d61a1"/>
      <stop offset="1" stop-color="#7cc5d7"/>
    </linearGradient>
    <linearGradient id="linear-gradient-2" x1="0.082" y1="-3.336" x2="0.082" y2="-4.002" xlink:href="#linear-gradient"/>
  </defs>
  <g id="Group_203" data-name="Group 203" transform="translate(-11.803 -7.741)">
    <g id="Group_201" data-name="Group 201" transform="matrix(1, 0, 0, 1, 51.707172, 44.511154)">
      <path id="Path_71" data-name="Path 71" d="M248.958,196.057,245.114,200v4.506h-1.249V187.364h1.249v11.02l10.7-11.02h1.518l-7.542,7.787,8.057,9.354H256.33Z" transform="translate(-243.865 -187.242)" fill="#383838"/>
      <path id="Path_72" data-name="Path 72" d="M336.244,202.958a8.382,8.382,0,0,1-3.2-3.122,9.025,9.025,0,0,1,0-8.865,8.385,8.385,0,0,1,3.2-3.122,9.727,9.727,0,0,1,9.109-.012,8.3,8.3,0,0,1,3.2,3.11,9.119,9.119,0,0,1,0,8.914,8.3,8.3,0,0,1-3.2,3.11,9.724,9.724,0,0,1-9.109-.012Zm8.448-.992a7.217,7.217,0,0,0,2.743-2.706,7.91,7.91,0,0,0,0-7.713,7.222,7.222,0,0,0-2.743-2.706,8.254,8.254,0,0,0-7.8,0,7.193,7.193,0,0,0-2.755,2.706,7.91,7.91,0,0,0,0,7.713,7.189,7.189,0,0,0,2.755,2.706,8.252,8.252,0,0,0,7.8,0Z" transform="translate(-315.454 -186.71)" fill="#383838"/>
      <path id="Path_73" data-name="Path 73" d="M451.817,203.447a6.916,6.916,0,0,1-2.657-1.677l.563-.931a6.629,6.629,0,0,0,2.436,1.555,8.74,8.74,0,0,0,3.22.6,6.143,6.143,0,0,0,3.7-.931,2.888,2.888,0,0,0,1.249-2.424,2.535,2.535,0,0,0-.661-1.837,4.379,4.379,0,0,0-1.64-1.053,22.593,22.593,0,0,0-2.645-.759,25.733,25.733,0,0,1-3.025-.906,4.821,4.821,0,0,1-1.934-1.359,3.627,3.627,0,0,1-.8-2.461,4.188,4.188,0,0,1,.661-2.29,4.493,4.493,0,0,1,2.02-1.653,8.27,8.27,0,0,1,3.392-.612,9.578,9.578,0,0,1,2.792.416,8.239,8.239,0,0,1,2.376,1.126l-.465,1a7.943,7.943,0,0,0-2.265-1.078,8.533,8.533,0,0,0-2.437-.367,5.771,5.771,0,0,0-3.6.955,2.994,2.994,0,0,0-1.224,2.473,2.535,2.535,0,0,0,.661,1.837,4.374,4.374,0,0,0,1.641,1.053,24.912,24.912,0,0,0,2.669.784,24.982,24.982,0,0,1,3.012.906,4.96,4.96,0,0,1,1.922,1.334,3.5,3.5,0,0,1,.8,2.412,4.072,4.072,0,0,1-.673,2.278,4.582,4.582,0,0,1-2.069,1.64,8.524,8.524,0,0,1-3.428.612A9.975,9.975,0,0,1,451.817,203.447Z" transform="translate(-410.836 -186.71)" fill="#383838"/>
      <path id="Path_74" data-name="Path 74" d="M541.8,202.958a8.381,8.381,0,0,1-3.2-3.122,9.027,9.027,0,0,1,0-8.865,8.385,8.385,0,0,1,3.2-3.122,9.727,9.727,0,0,1,9.109-.012,8.3,8.3,0,0,1,3.2,3.11,9.12,9.12,0,0,1,0,8.914,8.3,8.3,0,0,1-3.2,3.11,9.724,9.724,0,0,1-9.109-.012Zm8.448-.992a7.214,7.214,0,0,0,2.743-2.706,7.909,7.909,0,0,0,0-7.713,7.219,7.219,0,0,0-2.743-2.706,8.254,8.254,0,0,0-7.8,0,7.191,7.191,0,0,0-2.755,2.706,7.91,7.91,0,0,0,0,7.713,7.186,7.186,0,0,0,2.755,2.706,8.252,8.252,0,0,0,7.8,0Z" transform="translate(-482.64 -186.71)" fill="#383838"/>
      <path id="Path_75" data-name="Path 75" d="M662.589,187.364l-7.641,17.142H653.7l-7.64-17.142h1.371l6.93,15.526,6.93-15.526Z" transform="translate(-570.98 -187.242)" fill="#383838"/>
      <path id="Path_76" data-name="Path 76" d="M752.667,199.682h-9.942l-2.179,4.824H739.2l7.885-17.142h1.249l7.885,17.142h-1.347Zm-.465-1.053-4.506-9.893-4.481,9.893Z" transform="translate(-646.732 -187.242)" fill="#383838"/>
    </g>
    <path id="Path_116" data-name="Path 116" d="M56.973,7.741a15.054,15.054,0,0,1,0,30.107,15.058,15.058,0,0,0,0,30.116A15.054,15.054,0,1,1,41.919,83.018,15.059,15.059,0,0,0,26.857,67.965a15.058,15.058,0,0,1,0-30.116A15.059,15.059,0,0,0,41.919,22.795,15.057,15.057,0,0,1,56.973,7.741Z" fill="url(#linear-gradient-2)"/>
    <path id="Path_117" data-name="Path 117" d="M57.5,207.772H43.063a4.494,4.494,0,0,0,1.845,2.8,6.107,6.107,0,0,0,3.618,1.029,7.318,7.318,0,0,0,2.643-.443,6.4,6.4,0,0,0,2.146-1.4l2.944,3.193q-2.7,3.086-7.875,3.086a12.454,12.454,0,0,1-5.711-1.259,9.225,9.225,0,0,1-3.831-3.494,9.623,9.623,0,0,1-1.348-5.073,9.756,9.756,0,0,1,1.33-5.055,9.321,9.321,0,0,1,3.654-3.512,11.313,11.313,0,0,1,10.27-.053,8.811,8.811,0,0,1,3.565,3.459,10.316,10.316,0,0,1,1.295,5.232Q57.608,206.389,57.5,207.772Zm-12.948-6.137a4.529,4.529,0,0,0-1.561,2.909h9.4a4.578,4.578,0,0,0-1.561-2.891,4.668,4.668,0,0,0-3.122-1.082A4.765,4.765,0,0,0,44.553,201.635Z" transform="translate(-20.895 -153.429)" fill="#fff"/>
  </g>
</svg>