<svg id="svg" xmlns="http://www.w3.org/2000/svg" xmlns:xlink="http://www.w3.org/1999/xlink" width="400" height="400" viewBox="0, 0, 400,400"><g id="svgg"><path id="path0" d="M24.567 1.606 C 12.842 4.632,4.750 14.191,1.286 29.107 C 0.084 34.284,0.137 370.463,1.340 375.108 C 4.490 387.263,13.532 395.151,28.422 398.735 C 34.690 400.244,369.455 400.319,374.967 398.813 C 388.479 395.122,396.593 384.549,399.471 366.884 C 400.557 360.218,399.948 30.411,398.842 25.947 C 395.634 13.011,386.443 5.012,370.551 1.326 C 364.566 -0.062,29.980 0.209,24.567 1.606 M268.622 82.604 C 265.484 86.671,265.020 86.515,275.098 84.787 C 284.779 83.127,289.675 84.841,287.399 89.094 C 285.873 91.945,271.008 97.523,264.936 97.523 C 264.092 97.523,263.885 97.866,263.885 99.271 L 263.885 101.020 268.299 101.359 C 283.597 102.535,302.570 113.239,314.187 127.249 C 322.309 137.044,332.203 155.555,332.203 160.956 C 332.203 164.801,335.170 168.456,339.182 169.555 C 344.421 170.990,360.266 169.111,370.120 165.886 C 375.456 164.140,375.222 164.088,374.398 166.837 C 372.689 172.544,363.625 178.936,350.717 183.538 C 342.190 186.578,342.429 186.422,343.955 187.948 C 346.602 190.595,370.316 192.561,375.750 190.583 C 377.162 190.070,371.643 195.770,368.832 197.729 C 361.659 202.727,352.474 205.454,339.964 206.298 L 335.469 206.601 334.293 211.052 C 328.153 234.293,308.286 262.514,285.505 280.357 C 258.154 301.778,228.884 315.097,198.957 319.741 C 181.279 322.484,147.932 322.579,132.090 319.933 C 91.328 313.123,54.944 291.427,27.124 257.341 L 23.740 253.194 26.342 255.334 C 36.931 264.042,50.831 271.167,62.812 274.029 C 71.247 276.043,72.302 276.137,86.571 276.139 C 101.284 276.141,103.631 275.917,112.081 273.710 C 125.221 270.277,138.736 262.601,149.022 252.729 C 152.587 249.307,152.635 248.240,149.224 248.240 C 142.296 248.240,136.331 245.828,132.187 241.352 L 129.335 238.272 129.335 234.816 C 129.335 230.523,130.407 228.157,134.297 223.858 C 138.410 219.312,138.066 218.536,131.932 218.521 C 123.640 218.500,111.975 212.702,106.083 205.671 C 102.721 201.660,99.976 197.243,100.307 196.380 C 101.369 193.612,111.741 188.266,116.047 188.266 C 119.205 188.266,118.704 185.499,115.385 184.607 C 103.129 181.315,88.575 168.626,85.055 158.165 C 83.509 153.572,83.592 151.967,85.398 151.511 C 88.984 150.607,96.034 149.691,99.478 149.683 L 103.259 149.674 103.259 148.159 C 103.259 146.902,102.838 146.398,100.782 145.201 C 85.976 136.575,77.034 124.620,75.140 110.917 C 74.340 105.126,75.651 103.319,78.835 105.823 C 79.534 106.373,82.441 107.646,85.294 108.651 C 88.148 109.657,92.419 111.202,94.785 112.085 C 97.151 112.967,100.906 114.366,103.129 115.193 C 138.803 128.460,169.238 145.159,190.091 162.907 C 193.270 165.613,194.578 164.935,196.252 159.713 C 206.865 126.609,225.301 98.599,247.718 81.517 C 248.393 81.003,248.476 81.274,248.320 83.485 C 248.098 86.636,249.104 86.880,252.876 84.590 C 258.130 81.401,263.413 79.345,267.746 78.805 C 271.214 78.372,271.369 79.043,268.622 82.604 " stroke="none" fill="#000000" fill-rule="evenodd"></path></g></svg>